<svg xmlns="http://www.w3.org/2000/svg" version="1.1" xmlns:xlink="http://www.w3.org/1999/xlink" xmlns:svgjs="http://svgjs.dev/svgjs" width="2000" height="2000" viewBox="0 0 2000 2000"><g transform="matrix(1,0,0,1,0,0.0005980754283427814)"><svg viewBox="0 0 280 280" data-background-color="#051726" preserveAspectRatio="xMidYMid meet" height="2000" width="2000" xmlns="http://www.w3.org/2000/svg" xmlns:xlink="http://www.w3.org/1999/xlink"><g id="tight-bounds" transform="matrix(1,0,0,1,0,-0.00008373055996457879)"><svg viewBox="0 0 280 280" height="280" width="280"><g><svg viewBox="0 0 280 280" height="280" width="280"><g><svg viewBox="0 0 280 280" height="280" width="280"><g id="textblocktransform"><svg viewBox="0 0 280 280" height="280" width="280" id="textblock"><g><svg viewBox="0 0 280 280" height="280" width="280"><g transform="matrix(1,0,0,1,57.50420886156945,57.50420886156945)"><svg viewBox="0 0 164.9915822768611 164.9915822768611" height="164.9915822768611" width="164.9915822768611"><g id="icon-0"><circle r="82" cx="82.49579113843055" cy="82.49579113843055" fill="#81ffd9" data-fill-palette-color="accent"></circle><svg xmlns="http://www.w3.org/2000/svg" xmlns:xlink="http://www.w3.org/1999/xlink" version="1.1" x="24.748737341529164" y="24.74873734152917" viewBox="1.9899999999999998 9.405 45.187 29.687999999999995" enable-background="new 0 0 50 50" xml:space="preserve" height="115.49410759380275" width="115.49410759380275" class="icon-xg-0" data-fill-palette-color="quaternary" id="xg-0"><g fill="#051726" data-fill-palette-color="quaternary"><path fill="#051726" d="M43.7 9.405H5.467c-1.917 0-3.477 1.56-3.477 3.476v22.735c0 1.917 1.559 3.477 3.477 3.477H43.7c1.917 0 3.477-1.56 3.477-3.477V12.88C47.177 10.965 45.617 9.405 43.7 9.405zM5.464 11.722h38.234c0.643 0 1.16 0.519 1.16 1.158v3.901H4.307V12.88C4.307 12.241 4.826 11.722 5.464 11.722zM43.7 36.772H5.467c-0.641 0-1.159-0.518-1.159-1.158V19.096h40.551v16.518C44.859 36.255 44.341 36.772 43.7 36.772z" data-fill-palette-color="quaternary"></path><circle fill="#051726" cx="7.493" cy="14.321" r="1.2" data-fill-palette-color="quaternary"></circle><circle fill="#051726" cx="10.97" cy="14.321" r="1.2" data-fill-palette-color="quaternary"></circle><circle fill="#051726" cx="14.445" cy="14.321" r="1.2" data-fill-palette-color="quaternary"></circle><path fill="#051726" d="M7.493 33.17h11.778V21.873H7.493V33.17zM9.81 24.19h7.146v6.663H9.81V24.19z" data-fill-palette-color="quaternary"></path><rect x="21.799" y="21.779" fill="#051726" width="14.582" height="2.316" data-fill-palette-color="quaternary"></rect><rect x="24.687" y="23.171" transform="matrix(0.0053 1 -1 0.0053 52.9355 1.238)" fill="#051726" width="2.317" height="8.11" data-fill-palette-color="quaternary"></rect><rect x="21.799" y="30.757" fill="#051726" width="8.111" height="2.317" data-fill-palette-color="quaternary"></rect></g></svg></g></svg></g><g id="text-0"><path d="M36.061 94.277l-2.821 8.151-26.113-9.038 2.615-7.554c0.613-1.772 1.37-3.254 2.27-4.447 0.904-1.184 1.954-1.983 3.148-2.398 1.195-0.415 2.548-0.361 4.059 0.162v0c1.299 0.45 2.349 1.189 3.148 2.218 0.798 1.035 1.18 2.243 1.148 3.624v0l0.159 0.055c0.852-1.515 1.975-2.589 3.37-3.22 1.387-0.627 2.982-0.629 4.784-0.005v0c1.691 0.585 2.967 1.486 3.827 2.703 0.854 1.214 1.304 2.658 1.352 4.332 0.039 1.677-0.276 3.483-0.946 5.417zM21.62 95.116l10.296 3.564 1.64-4.738c0.807-2.332 0.996-4.296 0.567-5.892-0.427-1.603-1.554-2.721-3.382-3.353v0c-1.697-0.587-3.16-0.384-4.389 0.611-1.237 0.999-2.268 2.689-3.092 5.071v0zM10.485 91.262l8.869 3.07 1.391-4.019c0.807-2.332 0.985-4.153 0.534-5.466-0.451-1.312-1.351-2.201-2.7-2.668v0c-1.617-0.559-2.945-0.413-3.985 0.438-1.042 0.858-1.93 2.347-2.663 4.467v0z" fill="#ffffff" data-fill-palette-color="primary"></path><path d="M57.198 59.264v0c-0.494 0.607-1.022 1.001-1.583 1.181-0.561 0.179-1.158 0.157-1.789-0.069-0.631-0.225-1.304-0.628-2.018-1.209v0l-20.397-16.589 1.912-2.35 20.588 16.744c0.393 0.32 0.739 0.473 1.036 0.462 0.298-0.012 0.526-0.115 0.684-0.309v0c0.054-0.066 0.111-0.147 0.172-0.242 0.06-0.095 0.143-0.227 0.246-0.398v0l2.084 1.161c-0.075 0.228-0.181 0.472-0.317 0.734-0.146 0.263-0.352 0.558-0.618 0.884z" fill="#ffffff" data-fill-palette-color="primary"></path><path d="M85.967 36.179v0c-1.421 0.854-2.961 1.287-4.618 1.301-1.658 0.013-3.268-0.431-4.831-1.334-1.561-0.912-2.926-2.341-4.095-4.287v0c-1.155-1.923-1.776-3.799-1.861-5.628-0.08-1.832 0.275-3.477 1.065-4.934 0.79-1.457 1.896-2.613 3.317-3.467v0c1.416-0.85 2.946-1.279 4.592-1.285 1.652-0.01 3.271 0.449 4.857 1.376 1.586 0.928 2.956 2.353 4.112 4.277v0c1.169 1.946 1.784 3.825 1.845 5.638 0.057 1.808-0.306 3.438-1.091 4.892-0.779 1.45-1.876 2.601-3.292 3.451zM84.646 33.98v0c1.055-0.634 1.812-1.48 2.273-2.54 0.461-1.06 0.599-2.248 0.414-3.565-0.187-1.308-0.699-2.658-1.535-4.051v0c-0.823-1.37-1.773-2.454-2.851-3.25-1.079-0.787-2.2-1.234-3.362-1.341-1.159-0.102-2.266 0.164-3.32 0.797v0c-1.038 0.623-1.781 1.469-2.229 2.537-0.451 1.077-0.582 2.276-0.394 3.598 0.191 1.328 0.699 2.677 1.522 4.048v0c0.837 1.393 1.792 2.477 2.864 3.253 1.076 0.781 2.19 1.217 3.342 1.308 1.146 0.094 2.239-0.171 3.276-0.794z" fill="#ffffff" data-fill-palette-color="primary"></path><path d="M127.969 31.039v0c-1.665 0.254-3.156 0.256-4.472 0.004-1.316-0.252-2.381-0.728-3.193-1.429-0.818-0.694-1.314-1.61-1.488-2.748v0c-0.136-0.891-0.002-1.777 0.403-2.657 0.404-0.887 1.018-1.703 1.842-2.448v0l-0.025-0.166c-0.552-0.262-1.042-0.636-1.469-1.123-0.427-0.487-0.7-1.118-0.818-1.892v0c-0.131-0.859-0.005-1.643 0.379-2.354 0.39-0.712 0.808-1.288 1.253-1.729v0l-0.025-0.165c-0.724-0.428-1.428-1.073-2.112-1.934-0.684-0.861-1.117-1.886-1.298-3.076v0c-0.224-1.47-0.077-2.79 0.443-3.962 0.514-1.17 1.288-2.137 2.323-2.9 1.027-0.769 2.221-1.258 3.579-1.465v0c0.553-0.084 1.081-0.115 1.584-0.092 0.503 0.023 0.93 0.078 1.283 0.164v0l6.985-1.067 0.362 2.371-4.283 0.654c0.603 0.42 1.128 0.979 1.574 1.676 0.446 0.697 0.738 1.501 0.877 2.412v0c0.22 1.444 0.085 2.736-0.406 3.876-0.491 1.14-1.243 2.083-2.254 2.829-1.003 0.752-2.185 1.232-3.544 1.44v0c-0.527 0.08-1.063 0.099-1.609 0.056-0.547-0.05-1.071-0.149-1.573-0.299v0c-0.344 0.365-0.616 0.763-0.816 1.193-0.208 0.424-0.267 0.929-0.178 1.515v0c0.101 0.663 0.442 1.171 1.021 1.521 0.579 0.351 1.549 0.422 2.908 0.215v0l4.029-0.615c2.328-0.356 4.127-0.237 5.395 0.354 1.267 0.585 2.028 1.707 2.281 3.365v0c0.187 1.223-0.049 2.423-0.708 3.603-0.659 1.179-1.686 2.208-3.082 3.086-1.397 0.879-3.119 1.475-5.168 1.787zM128.049 28.821v0c1.333-0.204 2.459-0.588 3.378-1.155 0.919-0.566 1.606-1.227 2.063-1.982 0.452-0.748 0.62-1.496 0.506-2.244v0c-0.148-0.969-0.606-1.595-1.374-1.876-0.761-0.276-1.837-0.308-3.23-0.096v0l-3.697 0.564c-0.306 0.047-0.697 0.076-1.174 0.09-0.483 0.02-0.967 0.008-1.454-0.038v0c-0.689 0.678-1.161 1.355-1.416 2.033-0.25 0.67-0.329 1.311-0.236 1.923v0c0.174 1.138 0.851 1.957 2.032 2.455 1.182 0.505 2.716 0.614 4.602 0.326zM125.152 13.18v0c0.806-0.123 1.516-0.444 2.129-0.964 0.619-0.521 1.077-1.186 1.372-1.997 0.302-0.811 0.377-1.718 0.224-2.719v0c-0.157-1.028-0.489-1.875-0.997-2.543-0.515-0.673-1.145-1.16-1.89-1.459-0.738-0.3-1.523-0.386-2.356-0.259v0c-1.249 0.191-2.249 0.789-3 1.796-0.75 1.013-1.008 2.294-0.771 3.841v0c0.153 1.002 0.495 1.845 1.025 2.529 0.524 0.685 1.159 1.184 1.905 1.496 0.74 0.313 1.526 0.406 2.359 0.279z" fill="#ffffff" data-fill-palette-color="primary"></path><path d="M162.738 22.147l-3.12-0.695 8.884-8.92-3.955-10.881 3.237 0.721 1.778 5.179c0.206 0.619 0.421 1.243 0.644 1.873 0.219 0.622 0.431 1.242 0.637 1.861v0l0.163 0.036c0.449-0.473 0.886-0.949 1.309-1.427 0.425-0.485 0.849-0.967 1.273-1.445v0l3.597-3.981 3.121 0.696-8.218 8.471 4.271 11.549-3.237-0.722-2.002-5.532c-0.193-0.677-0.415-1.357-0.668-2.04-0.244-0.688-0.482-1.361-0.712-2.019v0l-0.164-0.036c-0.482 0.499-0.961 1.013-1.435 1.54-0.48 0.52-0.964 1.042-1.452 1.567v0z" fill="#ffffff" data-fill-palette-color="primary"></path><path d="M205.492 39.76v0c-1.812-1.124-2.74-2.423-2.784-3.899-0.036-1.478 0.463-3.05 1.496-4.716v0l6.185-9.972-2.608-1.617 1.223-1.971 2.818 1.504 3.365-4.695 2.18 1.352-3.038 4.898 4.756 2.95-1.332 2.146-4.755-2.949-6.227 10.039c-0.666 1.073-0.992 2.036-0.979 2.888 0.017 0.847 0.551 1.596 1.602 2.248v0c0.308 0.191 0.675 0.353 1.104 0.487 0.428 0.134 0.824 0.232 1.187 0.295v0l-0.681 2.296c-0.585-0.131-1.198-0.302-1.84-0.515-0.639-0.218-1.196-0.475-1.672-0.769z" fill="#ffffff" data-fill-palette-color="primary"></path><path d="M232.922 65.734v0c-1.125-1.401-1.811-2.938-2.058-4.612-0.243-1.669-0.021-3.341 0.668-5.017 0.687-1.666 1.906-3.201 3.655-4.605v0c1.708-1.372 3.463-2.224 5.263-2.556 1.805-0.327 3.478-0.224 5.021 0.31 1.546 0.539 2.812 1.421 3.796 2.647v0c1.055 1.313 1.653 2.684 1.797 4.114 0.138 1.433-0.146 2.839-0.854 4.216-0.708 1.378-1.826 2.681-3.355 3.909v0c-0.241 0.194-0.501 0.385-0.778 0.575-0.278 0.19-0.536 0.342-0.773 0.456v0l-9.139-11.381 1.715-1.428 7.556 9.412c1.703-1.368 2.708-2.769 3.015-4.206 0.311-1.431-0.053-2.793-1.091-4.085v0c-0.63-0.785-1.47-1.368-2.518-1.75-1.044-0.385-2.234-0.438-3.57-0.158-1.337 0.289-2.75 1.031-4.238 2.225v0c-1.421 1.141-2.399 2.34-2.934 3.597-0.535 1.257-0.706 2.499-0.513 3.728 0.193 1.229 0.694 2.346 1.501 3.351v0c0.63 0.785 1.33 1.409 2.098 1.872 0.768 0.463 1.577 0.839 2.425 1.128v0l-0.867 2.152c-0.98-0.327-1.972-0.779-2.975-1.357-1.004-0.578-1.953-1.423-2.847-2.537z" fill="#ffffff" data-fill-palette-color="primary"></path><path d="M250.953 98.694l-0.977-2.868 19.31-6.577 0.814 2.391-3.458 1.449 0.039 0.112c1.448 0.251 2.696 0.722 3.745 1.414 1.049 0.692 1.763 1.596 2.143 2.711v0c0.136 0.399 0.225 0.771 0.266 1.119 0.046 0.339 0.05 0.678 0.013 1.017v0l-2.732 0.305c-0.002-0.354-0.022-0.667-0.059-0.939-0.029-0.268-0.111-0.602-0.247-1v0c-0.28-0.822-0.913-1.569-1.9-2.241-0.986-0.672-2.444-1.065-4.374-1.179v0z" fill="#ffffff" data-fill-palette-color="primary"></path><path d="M14.827 135.082c0-1.901 1.541-3.442 3.442-3.442 1.901 0 3.442 1.541 3.441 3.442 0 1.901-1.541 3.442-3.441 3.442-1.901 0-3.442-1.541-3.442-3.442z" fill="#ffffff" data-fill-palette-color="primary"></path><path d="M263.528 135.082c0-1.901 1.541-3.442 3.441-3.442 1.901 0 3.442 1.541 3.442 3.442 0 1.901-1.541 3.442-3.442 3.442-1.901 0-3.442-1.541-3.441-3.442z" fill="#ffffff" data-fill-palette-color="primary"></path></g><g id="text-1"><path d="M16.413 183.914l-3.125-8.839 28.313-10.011 2.895 8.188c0.68 1.923 1.041 3.693 1.083 5.311 0.036 1.62-0.313 3.014-1.045 4.18-0.738 1.168-1.926 2.042-3.564 2.621v0c-1.408 0.498-2.8 0.578-4.175 0.241-1.384-0.341-2.528-1.109-3.432-2.304v0l-0.177 0.063c0.302 1.861 0.076 3.532-0.677 5.012-0.753 1.481-2.107 2.566-4.061 3.258v0c-1.836 0.649-3.529 0.745-5.079 0.288-1.55-0.457-2.913-1.381-4.089-2.772-1.17-1.394-2.125-3.139-2.867-5.236zM28.121 173.42l-11.165 3.948 1.813 5.127c0.895 2.531 2.066 4.332 3.513 5.405 1.447 1.072 3.163 1.258 5.147 0.556v0c1.836-0.649 2.941-1.818 3.314-3.506 0.375-1.682 0.106-3.816-0.809-6.403v0zM40.189 169.153l-9.611 3.399 1.539 4.354c0.893 2.525 1.975 4.194 3.247 5.007 1.272 0.813 2.642 0.96 4.112 0.441v0c1.749-0.619 2.775-1.644 3.078-3.077 0.303-1.433 0.047-3.3-0.766-5.602v0z" fill="#ffffff" data-fill-palette-color="primary"></path><path d="M40.504 225.736v0c-0.543-0.661-0.846-1.31-0.909-1.947-0.069-0.633 0.085-1.261 0.459-1.884 0.375-0.622 0.951-1.253 1.729-1.891v0l22.086-18.124 2.085 2.541-22.3 18.299c-0.422 0.346-0.658 0.681-0.709 1.003-0.055 0.317 0.006 0.583 0.181 0.796v0c0.058 0.071 0.13 0.148 0.216 0.232 0.095 0.084 0.219 0.199 0.372 0.345v0l-1.687 1.972c-0.226-0.13-0.462-0.298-0.708-0.504-0.255-0.207-0.527-0.487-0.815-0.838z" fill="#ffffff" data-fill-palette-color="primary"></path><path d="M74.871 253.3v0c-1.547-0.925-2.752-2.179-3.615-3.761-0.863-1.582-1.258-3.356-1.187-5.321 0.078-1.962 0.75-4.002 2.016-6.119v0c1.25-2.089 2.729-3.646 4.439-4.671 1.712-1.015 3.468-1.517 5.27-1.504 1.802 0.012 3.476 0.481 5.023 1.406v0c1.541 0.922 2.738 2.171 3.59 3.746 0.852 1.575 1.24 3.36 1.166 5.356-0.083 1.997-0.75 4.04-1.999 6.129v0c-1.267 2.117-2.752 3.671-4.456 4.66-1.709 0.986-3.459 1.476-5.249 1.471-1.791-0.006-3.457-0.469-4.999-1.392zM76.304 250.904v0c1.146 0.686 2.347 0.979 3.603 0.879 1.25-0.103 2.456-0.581 3.619-1.435 1.164-0.844 2.201-2.026 3.109-3.545v0c0.892-1.491 1.439-2.957 1.643-4.399 0.206-1.433 0.064-2.733-0.426-3.901-0.499-1.165-1.322-2.09-2.468-2.776v0c-1.129-0.676-2.322-0.956-3.579-0.842-1.26 0.12-2.476 0.608-3.648 1.464-1.169 0.865-2.199 2.042-3.091 3.533v0c-0.909 1.519-1.462 2.989-1.661 4.411-0.197 1.431-0.045 2.722 0.455 3.872 0.5 1.15 1.315 2.063 2.444 2.739z" fill="#ffffff" data-fill-palette-color="primary"></path><path d="M122.315 279.791v0c-1.809-0.271-3.354-0.748-4.635-1.432-1.288-0.685-2.244-1.523-2.867-2.514-0.618-0.984-0.834-2.094-0.65-3.33v0c0.144-0.963 0.568-1.841 1.272-2.634 0.703-0.786 1.602-1.437 2.697-1.951v0l0.026-0.176c-0.492-0.446-0.883-0.99-1.173-1.632-0.29-0.642-0.371-1.386-0.245-2.232v0c0.14-0.937 0.525-1.711 1.156-2.322 0.631-0.617 1.249-1.08 1.854-1.389v0l0.028-0.186c-0.611-0.677-1.132-1.57-1.566-2.679-0.433-1.109-0.552-2.314-0.357-3.615v0c0.238-1.594 0.812-2.915 1.72-3.964 0.916-1.054 2.03-1.812 3.344-2.274 1.321-0.468 2.719-0.591 4.196-0.371v0c0.599 0.09 1.154 0.226 1.666 0.409 0.511 0.183 0.938 0.38 1.278 0.59v0l7.594 1.136-0.385 2.577-4.656-0.696c0.492 0.626 0.859 1.372 1.102 2.24 0.236 0.867 0.28 1.798 0.131 2.793v0c-0.234 1.568-0.791 2.865-1.67 3.892-0.871 1.021-1.949 1.757-3.234 2.211-1.286 0.46-2.668 0.579-4.145 0.358v0c-0.573-0.086-1.135-0.24-1.687-0.462-0.552-0.222-1.067-0.492-1.545-0.81v0c-0.473 0.269-0.884 0.593-1.233 0.973-0.35 0.38-0.572 0.886-0.666 1.517v0c-0.108 0.722 0.083 1.359 0.572 1.912 0.49 0.552 1.47 0.938 2.94 1.158v0l4.392 0.657c2.531 0.378 4.36 1.074 5.486 2.087 1.126 1.013 1.553 2.424 1.283 4.233v0c-0.198 1.327-0.826 2.498-1.882 3.511-1.063 1.012-2.46 1.751-4.194 2.217-1.733 0.466-3.715 0.532-5.947 0.198zM123.116 277.506v0c1.451 0.217 2.744 0.178 3.88-0.118 1.141-0.288 2.064-0.749 2.771-1.382 0.713-0.632 1.131-1.354 1.252-2.168v0c0.159-1.061-0.115-1.857-0.821-2.388-0.705-0.538-1.812-0.92-3.321-1.145v0l-4.021-0.601c-0.332-0.05-0.75-0.142-1.256-0.278-0.504-0.142-1.001-0.309-1.491-0.502v0c-0.935 0.472-1.643 1.022-2.123 1.648-0.479 0.62-0.768 1.262-0.867 1.926v0c-0.185 1.236 0.258 2.304 1.328 3.202 1.063 0.897 2.62 1.499 4.669 1.806zM125.135 260.335v0c0.872 0.13 1.712 0.027 2.521-0.311 0.803-0.346 1.494-0.891 2.071-1.636 0.571-0.746 0.937-1.663 1.1-2.75v0c0.166-1.113 0.091-2.102-0.225-2.967-0.316-0.866-0.813-1.572-1.49-2.119-0.67-0.546-1.457-0.886-2.361-1.021v0c-1.36-0.203-2.592 0.098-3.698 0.904-1.105 0.806-1.784 2.052-2.036 3.736v0c-0.162 1.087-0.08 2.07 0.248 2.951 0.334 0.881 0.834 1.605 1.501 2.171 0.675 0.56 1.464 0.907 2.369 1.042z" fill="#ffffff" data-fill-palette-color="primary"></path><path d="M167.318 268.761l-3.389 0.766 4.585-12.894-8.939-8.847 3.523-0.796 4.15 4.263c0.493 0.509 0.993 1.02 1.5 1.533 0.507 0.513 1.004 1.024 1.49 1.535v0l0.183-0.041c0.22-0.67 0.426-1.341 0.618-2.011 0.192-0.671 0.386-1.338 0.58-2.003v0l1.693-5.583 3.388-0.765-4.148 12.137 9.571 9.362-3.523 0.796-4.54-4.509c-0.499-0.568-1.032-1.133-1.596-1.693-0.565-0.56-1.11-1.108-1.636-1.644v0l-0.183 0.041c-0.244 0.709-0.479 1.434-0.703 2.172-0.224 0.739-0.456 1.476-0.695 2.211v0z" fill="#ffffff" data-fill-palette-color="primary"></path><path d="M217.441 249.253v0c-1.969 1.219-3.684 1.492-5.146 0.818-1.456-0.677-2.745-1.922-3.868-3.734v0l-6.713-10.84-2.836 1.756-1.325-2.139 2.834-2.022-2.955-5.541 2.374-1.471 3.299 5.328 5.169-3.2 1.444 2.332-5.168 3.201 6.76 10.916c0.72 1.163 1.499 1.946 2.336 2.348 0.839 0.393 1.83 0.237 2.971-0.469v0c0.336-0.208 0.672-0.49 1.009-0.846 0.335-0.347 0.617-0.684 0.847-1.012v0l1.904 1.781c-0.4 0.503-0.862 1.014-1.385 1.531-0.52 0.523-1.037 0.944-1.551 1.263z" fill="#ffffff" data-fill-palette-color="primary"></path><path d="M250.146 218.595v0c-1.225 1.514-2.7 2.593-4.423 3.237-1.719 0.649-3.546 0.799-5.482 0.451-1.927-0.349-3.839-1.291-5.736-2.827v0c-1.846-1.494-3.153-3.158-3.922-4.99-0.769-1.842-1.046-3.644-0.829-5.407 0.211-1.767 0.855-3.316 1.931-4.645v0c1.151-1.422 2.47-2.372 3.959-2.852 1.483-0.484 3.039-0.507 4.666-0.07 1.627 0.437 3.269 1.326 4.926 2.667v0c0.261 0.211 0.526 0.443 0.796 0.695 0.266 0.257 0.485 0.494 0.657 0.709v0l-9.977 12.328-1.911-1.483 8.252-10.195c-1.851-1.498-3.57-2.246-5.155-2.243-1.595 0.004-2.959 0.707-4.094 2.109v0c-0.687 0.849-1.115 1.874-1.283 3.075-0.164 1.196 0.059 2.473 0.671 3.831 0.606 1.354 1.714 2.682 3.324 3.986v0c1.539 1.246 3.037 2.01 4.494 2.291 1.466 0.281 2.825 0.175 4.079-0.317 1.263-0.493 2.335-1.284 3.216-2.374v0c0.687-0.849 1.188-1.734 1.502-2.656 0.315-0.922 0.531-1.864 0.65-2.826v0l2.479 0.419c-0.116 1.116-0.366 2.272-0.75 3.468-0.383 1.205-1.063 2.411-2.04 3.619z" fill="#ffffff" data-fill-palette-color="primary"></path><path d="M270.848 179.025l-1.079 3.104-20.937-7.277 0.901-2.592 3.928 1.083 0.045-0.13c-1.073-1.181-1.83-2.419-2.271-3.715-0.433-1.3-0.44-2.552-0.021-3.758v0c0.151-0.435 0.324-0.81 0.517-1.127 0.189-0.324 0.411-0.62 0.664-0.887v0l2.558 1.568c-0.237 0.301-0.431 0.578-0.582 0.833-0.151 0.254-0.302 0.599-0.453 1.033v0c-0.309 0.889-0.267 1.951 0.124 3.188 0.394 1.231 1.38 2.542 2.959 3.933v0z" fill="#ffffff" data-fill-palette-color="primary"></path></g></svg></g></svg></g></svg></g></svg></g><defs></defs></svg><rect width="280" height="280" fill="none" stroke="none" visibility="hidden"></rect></g></svg></g></svg>